<mxfile host="app.diagrams.net" modified="2023-06-06T02:38:12.237Z" agent="Mozilla/5.0 (Windows NT 10.0; Win64; x64) AppleWebKit/537.36 (KHTML, like Gecko) Chrome/114.0.0.0 Safari/537.36" version="21.3.7" etag="1rsl85ziJXS7jrGCwZ68" type="github">
  <diagram name="Page-1" id="LiJ4vm1DbjaULEuswL7e">
    <mxGraphModel>
      <root>
        <mxCell id="0" />
        <mxCell id="1" parent="0" />
      </root>
    </mxGraphModel>
  </diagram>
</mxfile>
